<svg width="34" height="34" viewBox="0 0 34 34" fill="none" xmlns="http://www.w3.org/2000/svg">
<g clip-path="url(#clip0_58_26)">
<path d="M32.0871 19.5496L27.8372 16.3622C27.8237 16.3518 27.8081 16.3461 27.7944 16.3362C27.7293 16.2895 27.659 16.2511 27.5886 16.2119C27.5355 16.1824 27.4836 16.1499 27.4289 16.1253C27.364 16.0962 27.2955 16.076 27.2273 16.0534C27.1623 16.0319 27.0979 16.0077 27.0315 15.9927C26.9703 15.9787 26.907 15.9735 26.844 15.9652C26.7669 15.9549 26.6904 15.944 26.6131 15.9421C26.5957 15.9416 26.5797 15.9372 26.562 15.9372H24.4373V15.6345C24.5037 15.6124 24.5166 15.6041 24.5534 15.5798L27.7379 13.4566C27.7392 13.4558 27.7407 13.4548 27.742 13.4538C27.9012 13.3474 28.0343 13.2185 28.1547 13.081C28.185 13.0463 28.2128 13.0112 28.2411 12.9744C28.3581 12.8216 28.4598 12.6598 28.5306 12.4847C28.5319 12.4816 28.5342 12.4795 28.5355 12.4764L30.6604 7.16402C31.0962 6.07357 30.566 4.83781 29.4765 4.40099C28.3819 3.96729 27.1492 4.49648 26.7135 5.58488L24.8331 10.2856L23.9927 10.8461C23.8166 10.7164 23.6101 10.6247 23.3746 10.6247H10.625C10.3894 10.6247 10.183 10.7164 10.0069 10.8461L9.16643 10.2856L7.28607 5.58488C6.84925 4.49648 5.61555 3.96935 4.52303 4.40099C3.43357 4.83781 2.90339 6.07357 3.33914 7.16402L5.46408 12.4764C5.46541 12.4795 5.46773 12.4816 5.46899 12.4847C5.53978 12.6598 5.64125 12.8214 5.75819 12.9742C5.78648 13.011 5.8145 13.0463 5.84485 13.081C5.96544 13.2185 6.09826 13.3474 6.25757 13.4538C6.25889 13.4548 6.26042 13.4558 6.26175 13.4566L9.44619 15.5798C9.48305 15.6041 9.49587 15.6124 9.56227 15.6345V15.9373H7.43754C7.42014 15.9373 7.4038 15.9417 7.38667 15.9422C7.31017 15.944 7.23467 15.955 7.15843 15.9649C7.09409 15.9735 7.02954 15.9789 6.96725 15.9931C6.90317 16.0077 6.84094 16.0313 6.77786 16.052C6.70727 16.0751 6.63648 16.0961 6.56928 16.1261C6.51635 16.15 6.46628 16.1814 6.41495 16.2099C6.34283 16.2497 6.27125 16.289 6.20484 16.3365C6.19109 16.3463 6.17575 16.3521 6.16227 16.3622L1.91241 19.5497C0.973422 20.2531 0.7835 21.5853 1.48807 22.5244C1.90517 23.0805 2.54327 23.3742 3.18966 23.3742C3.63273 23.3742 4.07991 23.2365 4.46274 22.9491L8.14543 20.1873H9.56227V21.5443C9.49587 21.5666 9.48351 21.5812 9.44619 21.6061L6.25883 23.731C6.24223 23.7419 6.22981 23.7567 6.21374 23.7681C6.14394 23.8174 6.07966 23.8732 6.01585 23.931C5.97355 23.9691 5.93052 24.006 5.89213 24.0469C5.84 24.1022 5.79432 24.1632 5.74816 24.2244C5.70925 24.276 5.66954 24.3263 5.63587 24.3808C5.60008 24.4386 5.57079 24.5004 5.54044 24.5621C5.50804 24.6277 5.4761 24.6931 5.45093 24.7615C5.44236 24.7841 5.42941 24.8036 5.42164 24.8266L3.29671 31.2014C2.92523 32.3147 3.52707 33.5183 4.64038 33.8897C4.86343 33.9645 5.09068 33.9997 5.31274 33.9997C6.20298 33.9997 7.032 33.4363 7.32876 32.5461L9.22334 26.8623L10.1405 26.2509C11.2653 28.9297 13.9126 30.8113 16.9999 30.8113C20.0872 30.8113 22.7346 28.9297 23.8593 26.2509L24.7765 26.8623L26.671 32.5461C26.9678 33.4363 27.7968 33.9997 28.6871 33.9997C28.9091 33.9997 29.1363 33.9645 29.3594 33.8897C30.4727 33.5183 31.0745 32.3147 30.7031 31.2014L28.5782 24.8266C28.5704 24.8035 28.5574 24.7841 28.5489 24.7615C28.5234 24.6928 28.4918 24.6275 28.4594 24.5615C28.429 24.5 28.3997 24.4385 28.3641 24.381C28.3301 24.3263 28.2902 24.2757 28.2513 24.2238C28.2052 24.1626 28.1595 24.1021 28.1076 24.0469C28.0692 24.0059 28.0261 23.9691 27.9839 23.9309C27.9201 23.8731 27.8557 23.8173 27.786 23.768C27.7699 23.7566 27.7575 23.7418 27.7409 23.7309L24.5536 21.606C24.5162 21.5811 24.5039 21.5665 24.4375 21.5442V20.1873H25.8543L29.5369 22.949C29.9198 23.2364 30.367 23.3743 30.81 23.3743C31.4564 23.3743 32.0945 23.0805 32.5116 22.5244C33.216 21.5853 33.0261 20.253 32.0871 19.5496ZM18.0623 22.3116C18.0623 22.8983 17.5865 23.3741 16.9998 23.3741C16.413 23.3741 15.9373 22.8983 15.9373 22.3116V15.9368C15.9373 15.35 16.413 14.8743 16.9998 14.8743C17.5865 14.8743 18.0623 15.35 18.0623 15.9368V22.3116Z" fill="#D92D2D"/>
<path d="M11.6873 8.50001H22.3121C22.3121 6.37501 21.5235 5.35341 20.3153 4.37963L22.1336 1.6518C22.4594 1.16311 22.3277 0.504229 21.839 0.178374C21.3482 -0.146419 20.6904 -0.0156654 20.3656 0.473018L18.4132 3.40153C17.9603 3.27596 17.4926 3.18724 16.9998 3.18724C16.5069 3.18724 16.0393 3.27596 15.5863 3.40153L13.6338 0.473018C13.309 -0.0156654 12.6492 -0.146419 12.1605 0.178374C11.6718 0.504163 11.54 1.16305 11.8658 1.65173L13.6842 4.3797C12.4759 5.35341 11.6873 6.37501 11.6873 8.50001Z" fill="#D92D2D"/>
</g>
<defs>
<clipPath id="clip0_58_26">
<rect width="34" height="34" fill="white"/>
</clipPath>
</defs>
</svg>
