<svg width="32" height="32" viewBox="0 0 32 32" fill="none" xmlns="http://www.w3.org/2000/svg">
<g clip-path="url(#clip0_58_3)">
<path d="M3.2846 21.4285C3.49524 21.218 3.61634 20.9258 3.61634 20.628C3.61634 20.329 3.49524 20.038 3.2846 19.8273C3.07396 19.6167 2.78294 19.4956 2.48395 19.4956C2.18507 19.4956 1.89395 19.6167 1.68341 19.8273C1.47277 20.038 1.35156 20.329 1.35156 20.628C1.35156 20.9258 1.47277 21.218 1.68341 21.4285C1.89395 21.6392 2.18615 21.7604 2.48395 21.7604C2.78176 21.7605 3.07396 21.6393 3.2846 21.4285Z" fill="#A4B72F"/>
<path d="M4.35261 18.0236C4.65041 18.0236 4.94261 17.9024 5.15325 17.6917C5.36389 17.4812 5.485 17.189 5.485 16.8912C5.485 16.5934 5.36389 16.3012 5.15325 16.0905C4.94261 15.8799 4.65041 15.7588 4.35261 15.7588C4.0548 15.7588 3.7626 15.8799 3.55207 16.0905C3.34143 16.3012 3.22021 16.5934 3.22021 16.8912C3.22021 17.189 3.34143 17.4812 3.55207 17.6917C3.7626 17.9024 4.0548 18.0236 4.35261 18.0236Z" fill="#A4B72F"/>
<path d="M8.08942 26.9697C7.79162 26.9697 7.49942 27.0898 7.28888 27.3015C7.07824 27.5121 6.95703 27.8043 6.95703 28.1021C6.95703 28.3999 7.07824 28.6921 7.28888 28.9027C7.49942 29.1133 7.79162 29.2345 8.08942 29.2345C8.38723 29.2345 8.67943 29.1133 8.89007 28.9027C9.10071 28.6921 9.22181 28.3999 9.22181 28.1021C9.22181 27.8043 9.10071 27.5121 8.89007 27.3015C8.67932 27.0896 8.38723 26.9697 8.08942 26.9697Z" fill="#A4B72F"/>
<path d="M11.0733 29.7354C10.7755 29.7354 10.4833 29.8565 10.2727 30.0671C10.062 30.2777 9.94092 30.5699 9.94092 30.8677C9.94092 31.1655 10.062 31.4577 10.2727 31.6683C10.4833 31.8789 10.7755 32.0001 11.0733 32.0001C11.3722 32.0001 11.6633 31.8789 11.8738 31.6683C12.0857 31.4577 12.2057 31.1655 12.2057 30.8677C12.2057 30.5699 12.0856 30.2777 11.8738 30.0671C11.6633 29.8565 11.3723 29.7354 11.0733 29.7354Z" fill="#A4B72F"/>
<path d="M11.8267 25.1011C11.5289 25.1011 11.2367 25.2222 11.0262 25.4328C10.8155 25.6435 10.6943 25.9357 10.6943 26.2335C10.6943 26.5313 10.8155 26.8235 11.0262 27.034C11.2367 27.2446 11.5289 27.3659 11.8267 27.3659C12.1245 27.3659 12.4167 27.2446 12.6274 27.034C12.838 26.8235 12.9591 26.5313 12.9591 26.2335C12.9591 25.9357 12.838 25.6435 12.6274 25.4328C12.4167 25.2221 12.1245 25.1011 11.8267 25.1011Z" fill="#A4B72F"/>
<path d="M7.35365 22.4966C7.35365 22.1988 7.23254 21.9066 7.0219 21.696C6.81126 21.4854 6.51906 21.3643 6.22126 21.3643C5.92345 21.3643 5.63125 21.4854 5.42072 21.696C5.21008 21.9066 5.08887 22.1988 5.08887 22.4966C5.08887 22.7945 5.21008 23.0867 5.42072 23.2972C5.63125 23.5078 5.92345 23.629 6.22126 23.629C6.51906 23.629 6.81126 23.5078 7.0219 23.2972C7.23254 23.0855 7.35365 22.7946 7.35365 22.4966Z" fill="#A4B72F"/>
<path d="M4.35261 25.1011C4.0548 25.1011 3.7626 25.2222 3.55207 25.4328C3.34143 25.6435 3.22021 25.9357 3.22021 26.2335C3.22021 26.5313 3.34143 26.8235 3.55207 27.034C3.7626 27.2446 4.0548 27.3659 4.35261 27.3659C4.65041 27.3659 4.94261 27.2446 5.15325 27.034C5.36389 26.8235 5.485 26.5313 5.485 26.2335C5.485 25.9357 5.36389 25.6435 5.15325 25.4328C4.94261 25.2221 4.65041 25.1011 4.35261 25.1011Z" fill="#A4B72F"/>
<path d="M3.59919 29.7354C3.30138 29.7354 3.00918 29.8565 2.79854 30.0671C2.5879 30.2777 2.4668 30.5699 2.4668 30.8677C2.4668 31.1655 2.5879 31.4577 2.79854 31.6683C3.00918 31.8789 3.30138 32.0001 3.59919 32.0001C3.89807 32.0001 4.18919 31.8789 4.39973 31.6683C4.61155 31.4577 4.73158 31.1655 4.73158 30.8677C4.73158 30.5699 4.61144 30.2777 4.39973 30.0671C4.18919 29.8565 3.89818 29.7354 3.59919 29.7354Z" fill="#A4B72F"/>
<path d="M22.6061 8.09612C22.1805 7.66471 21.6181 7.44879 21.0541 7.44879C20.4955 7.44879 19.9356 7.66051 19.5051 8.08448C19.3444 8.24265 19.2137 8.41892 19.1117 8.60672C19.0144 8.41763 18.8867 8.24071 18.7295 8.0819C18.304 7.65049 17.7416 7.43457 17.1775 7.43457C16.619 7.43457 16.0588 7.64629 15.6282 8.07015C14.7633 8.92241 14.7488 10.3092 15.5961 11.1674C15.7526 11.3266 15.9285 11.4564 16.1163 11.5566C15.9265 11.656 15.7482 11.7842 15.5883 11.9422C14.7224 12.794 14.7078 14.181 15.5556 15.0389C15.9811 15.4703 16.5435 15.6863 17.1076 15.6863C17.6662 15.6863 18.2263 15.4745 18.657 15.0506C18.8173 14.8926 18.9481 14.7163 19.05 14.5283C19.1482 14.7174 19.275 14.8947 19.432 15.0539C19.8576 15.4851 20.4199 15.7009 20.9837 15.7009C21.5424 15.7009 22.1025 15.4892 22.5329 15.0652C23.3986 14.213 23.4133 12.8267 22.5656 11.9678C22.4091 11.8083 22.233 11.6794 22.0452 11.5789C22.235 11.4794 22.4135 11.3514 22.5738 11.1932C23.4387 10.3413 23.4535 8.95473 22.6061 8.09612ZM21.0299 13.5168C20.5081 14.0386 19.8145 14.3261 19.0768 14.3261C18.3405 14.3261 17.6487 14.0396 17.1287 13.5197C16.6074 12.9986 16.3208 12.3053 16.3217 11.5674C16.3228 10.8312 16.6102 10.1388 17.1311 9.6179C17.6531 9.09588 18.3468 8.80842 19.0844 8.80842C19.8206 8.80842 20.5127 9.09501 21.0325 9.6151C21.554 10.1364 21.8405 10.8297 21.8394 11.5674C21.8385 12.3035 21.5509 12.9958 21.0299 13.5168Z" fill="#A4B72F"/>
<path d="M19.0845 10.1675C18.7256 10.1675 18.3664 10.3046 18.0921 10.579C17.5446 11.1264 17.5433 12.0128 18.0894 12.5588C18.3619 12.8312 18.719 12.9673 19.0766 12.9673C19.4355 12.9673 19.7949 12.8302 20.0689 12.5561C20.6165 12.0084 20.6178 11.1222 20.0718 10.5763C19.7994 10.3037 19.4421 10.1675 19.0845 10.1675Z" fill="#A4B72F"/>
<path d="M6.37279 12.9263C6.28337 12.751 6.22454 12.5646 6.19502 12.3745L5.33813 13.2313C5.00584 13.5635 4.92536 14.0721 5.13902 14.4906C7.60937 19.3312 11.3165 23.0383 16.1573 25.5088C16.3135 25.5886 16.4822 25.6273 16.6498 25.6273C16.931 25.6273 17.2084 25.518 17.4167 25.3097L18.2731 24.4534C18.0816 24.4231 17.8945 24.3634 17.7218 24.2752C12.7361 21.7303 8.91771 17.9119 6.37279 12.9263Z" fill="#A4B72F"/>
<path d="M30.6111 11.2009C28.1078 6.29624 24.3516 2.54007 19.447 0.0369562C19.3985 0.0121751 19.3456 0 19.2927 0C19.2293 0 19.1659 0.0175623 19.1107 0.0525791C13.6921 3.48154 10.9944 6.17912 7.5651 11.5981C7.50132 11.6991 7.49529 11.8279 7.54959 11.9343C10.053 16.8386 13.8092 20.5947 18.7137 23.0984C18.8197 23.1525 18.9496 23.1463 19.0501 23.0827C24.4688 19.6538 27.1663 16.9562 30.5955 11.537C30.6595 11.4361 30.6654 11.3072 30.6111 11.2009ZM24.5506 13.5211C24.5439 14.4722 24.1658 15.3645 23.4863 16.0333C22.8143 16.6952 21.9255 17.0598 20.9836 17.0598C20.2798 17.0598 19.6088 16.857 19.0365 16.4789C18.4658 16.8474 17.8009 17.0451 17.1074 17.0451C16.1518 17.0451 15.2571 16.6715 14.5887 15.994C13.9251 15.3224 13.5634 14.4318 13.5701 13.4861C13.5751 12.7834 13.7827 12.1129 14.1641 11.5417C13.7969 10.9687 13.6037 10.3004 13.611 9.60237C13.6208 8.65595 13.9984 7.76813 14.6746 7.10174C15.3468 6.43997 16.2356 6.07558 17.1773 6.07558C17.8817 6.07558 18.5531 6.27868 19.1246 6.65632C19.6954 6.28762 20.3603 6.08991 21.0539 6.08991C22.0094 6.08991 22.9041 6.46357 23.5732 7.14171C24.2393 7.81673 24.6006 8.71165 24.5907 9.66152C24.5834 10.3593 24.3762 11.0252 23.9972 11.5935C24.3624 12.1634 24.5556 12.8276 24.5506 13.5211Z" fill="#A4B72F"/>
</g>
<defs>
<clipPath id="clip0_58_3">
<rect width="32" height="32" fill="white"/>
</clipPath>
</defs>
</svg>
