<svg width="36" height="36" viewBox="0 0 36 36" fill="none" xmlns="http://www.w3.org/2000/svg">
<path d="M14.625 7.875V9.45703C9.03955 10.8984 4.96143 15.8423 4.64062 21.7969C3.32227 22.2583 2.25 23.2822 2.25 24.75V28.125H33.75V24.75C33.75 23.2822 32.6777 22.2583 31.3594 21.7969C31.0386 15.8423 26.9604 10.8984 21.375 9.45703V7.875H14.625ZM16.9102 10.125H19.125C19.103 10.2524 19.103 10.3843 19.125 10.5117V16.875H21.375V11.8125C25.5806 13.1396 28.7622 16.8442 29.2148 21.375H27V23.625H30.375C31.0122 23.625 31.5 24.1128 31.5 24.75V25.875H4.5V24.75C4.5 24.1128 4.98779 23.625 5.625 23.625H9V21.375H6.78516C7.23779 16.8442 10.4194 13.1396 14.625 11.8125V16.875H16.875V10.6875C16.9321 10.5073 16.9453 10.314 16.9102 10.125Z" fill="#D9DD25"/>
</svg>
