<svg width="30" height="30" viewBox="0 0 30 30" fill="none" xmlns="http://www.w3.org/2000/svg">
<g clip-path="url(#clip0_58_57)">
<path d="M29.7003 18.4081C28.8009 17.2089 27.9015 17.2089 25.703 18.3582L21.4059 21.0064C20.8063 21.3561 19.4572 21.4561 18.2081 21.4561C18.4579 21.0064 18.358 20.4567 17.9083 19.8072C17.1089 18.658 15.7598 17.9585 14.3107 17.9585H12.3621C11.3128 17.9585 10.3135 17.6587 9.51402 17.0591C7.71109 15.7069 4.89178 17.1782 3.5181 18.0558V17.0091H0.0205078V30.0003H3.5181V28.5013H10.0137C11.013 28.5013 12.0623 28.4014 13.0616 28.3514L19.5571 27.3521C19.807 27.3521 20.0568 27.3021 20.2567 27.2521C20.8562 27.1522 21.4059 26.8524 21.9055 26.4027L29.4504 20.4068C30.0501 19.9071 30.15 19.0077 29.7003 18.4081ZM2.51882 29.0009H1.01985V18.0084H2.51882V18.7579V28.5012V29.0009ZM28.8509 19.7072L21.2561 25.6032L21.2061 25.6532C20.9063 26.0029 20.5066 26.2028 20.1069 26.2527H20.0569C19.8571 26.3027 19.7072 26.3027 19.5073 26.3027L12.9118 27.302C11.9624 27.4519 10.9631 27.5019 10.0138 27.5019H3.51816V19.2575C4.71735 18.4081 7.51546 16.8092 8.91448 17.9084C9.86382 18.608 11.113 19.0076 12.3621 19.0076H14.3108C15.46 19.0076 16.5093 19.5073 17.1589 20.4567C17.3587 20.7565 17.4087 21.0563 17.3587 21.1562C17.2088 21.4061 16.6092 21.506 15.9597 21.556C15.7598 21.556 15.5599 21.556 15.41 21.556H11.4627C9.91382 21.556 8.96443 22.3055 8.96443 23.5546C8.96443 23.8544 9.16428 24.0542 9.46407 24.0542C9.76387 24.0542 9.96371 23.8544 9.96371 23.5546C9.96371 23.3047 9.96371 22.5552 11.4627 22.5552H15.36C15.5099 22.5552 15.7098 22.5552 16.0096 22.5552C16.0595 22.5552 16.1595 22.5552 16.2594 22.5552C18.6078 22.6052 20.8063 22.5552 21.9555 21.9557L26.2526 19.3074C28.3512 18.2582 28.551 18.508 28.9508 19.1076C29.0507 19.2576 29.0507 19.5573 28.8509 19.7072Z" fill="#42A41F"/>
<path d="M9.01429 9.0146C12.312 9.0146 15.0102 6.31643 15.0102 3.01868C15.0102 2.71889 14.8104 2.51904 14.5106 2.51904C11.2128 2.51904 8.51465 5.2172 8.51465 8.51496C8.51465 8.81469 8.71449 9.0146 9.01429 9.0146ZM13.9609 3.56827C13.7611 5.86668 11.8623 7.76541 9.51393 8.01526C9.76378 5.66684 11.6126 3.81812 13.9609 3.56827Z" fill="#42A41F"/>
<path d="M11.313 10.9132C11.0632 11.0132 10.9133 11.313 11.0132 11.5628C11.6128 13.0617 12.7121 14.2609 14.1611 14.9105C14.9605 15.2602 15.81 15.4601 16.6594 15.4601C17.359 15.4601 18.0584 15.3102 18.708 15.0604C18.9579 14.9604 19.1078 14.6606 19.0078 14.4108C17.8585 11.313 14.4109 9.76399 11.313 10.9132ZM14.6108 13.9611C13.5615 13.5114 12.7121 12.662 12.2124 11.6627C13.3117 11.3629 14.4609 11.4629 15.5102 11.9625C16.5595 12.4122 17.4089 13.2616 17.9085 14.2609C16.8093 14.5607 15.6601 14.4608 14.6108 13.9611Z" fill="#42A41F"/>
<path d="M18.0581 8.41471C18.108 8.41471 18.208 8.41471 18.2579 8.36477C19.657 7.61528 20.7062 6.41609 21.2059 4.86717C21.7056 3.31824 21.5557 1.66937 20.8062 0.270282C20.7062 0.0204328 20.4064 -0.07946 20.1566 0.0704378C18.7576 0.819927 17.7083 2.01911 17.2086 3.56803C16.709 5.11696 16.8589 6.76583 17.6084 8.16492C17.7083 8.31482 17.8582 8.41471 18.0581 8.41471ZM18.158 3.86783C18.5077 2.7686 19.2073 1.86921 20.1566 1.21962C20.5563 2.2689 20.6063 3.46808 20.2565 4.56731C19.9068 5.66655 19.2073 6.56593 18.2579 7.21553C17.8582 6.1163 17.8082 4.96706 18.158 3.86783Z" fill="#42A41F"/>
</g>
<defs>
<clipPath id="clip0_58_57">
<rect width="30" height="30" fill="white"/>
</clipPath>
</defs>
</svg>
