<svg width="30" height="30" viewBox="0 0 30 30" fill="none" xmlns="http://www.w3.org/2000/svg">
<path d="M28.75 5C28.75 4.66848 28.6183 4.35054 28.3839 4.11612C28.1495 3.8817 27.8315 3.75 27.5 3.75H21.25V2.5C21.25 2.16848 21.1183 1.85054 20.8839 1.61612C20.6495 1.3817 20.3315 1.25 20 1.25C19.6685 1.25 19.3505 1.3817 19.1161 1.61612C18.8817 1.85054 18.75 2.16848 18.75 2.5V3.23625C16.3464 2.25464 13.6536 2.25464 11.25 3.23625V2.5C11.25 2.16848 11.1183 1.85054 10.8839 1.61612C10.6495 1.3817 10.3315 1.25 10 1.25C9.66848 1.25 9.35054 1.3817 9.11612 1.61612C8.8817 1.85054 8.75 2.16848 8.75 2.5V3.75H2.5C2.16848 3.75 1.85054 3.8817 1.61612 4.11612C1.3817 4.35054 1.25 4.66848 1.25 5C1.32827 6.18356 1.74534 7.31962 2.45148 8.27266C3.15762 9.22571 4.12302 9.95551 5.2325 10.375C5.07937 11.073 5.00143 11.7854 5 12.5V16.0637C2.67 17.4012 1.25 19.2175 1.25 21.25C1.25 25.455 7.29 28.75 15 28.75C22.71 28.75 28.75 25.455 28.75 21.25C28.75 19.2175 27.33 17.4012 25 16.0637V12.5C24.9986 11.7854 24.9206 11.073 24.7675 10.375C25.877 9.95551 26.8424 9.22571 27.5485 8.27266C28.2547 7.31962 28.6717 6.18356 28.75 5ZM6.07 8.0175C5.24193 7.65997 4.55543 7.03851 4.1175 6.25H7.20625C6.77844 6.78549 6.40612 7.36304 6.095 7.97375C6.0875 7.98875 6.0775 8 6.07 8.0175ZM26.25 21.25C26.25 23.615 21.625 26.25 15 26.25C8.375 26.25 3.75 23.615 3.75 21.25C3.75 20.0888 4.8675 18.865 6.785 17.9175H6.8C9.378 16.7671 12.1775 16.1978 15 16.25C17.8222 16.1963 20.6216 16.7638 23.2 17.9125H23.21C25.125 18.8625 26.25 20.0875 26.25 21.25ZM15 13.75C12.4535 13.7396 9.9216 14.1358 7.5 14.9237V12.5C7.5 10.5109 8.29018 8.60322 9.6967 7.1967C11.1032 5.79018 13.0109 5 15 5C16.9891 5 18.8968 5.79018 20.3033 7.1967C21.7098 8.60322 22.5 10.5109 22.5 12.5V14.9237C20.0789 14.1337 17.5467 13.7374 15 13.75ZM23.93 8.0175C23.9225 8.00375 23.915 7.9925 23.9088 7.98C23.5963 7.36727 23.2227 6.78766 22.7938 6.25H25.8813C25.4442 7.03878 24.758 7.66038 23.93 8.0175ZM12.5 21.25C12.5 21.7445 12.3534 22.2278 12.0787 22.6389C11.804 23.05 11.4135 23.3705 10.9567 23.5597C10.4999 23.7489 9.99723 23.7984 9.51227 23.702C9.02732 23.6055 8.58186 23.3674 8.23223 23.0178C7.8826 22.6681 7.6445 22.2227 7.54804 21.7377C7.45157 21.2528 7.50108 20.7501 7.6903 20.2933C7.87952 19.8365 8.19995 19.446 8.61107 19.1713C9.0222 18.8966 9.50555 18.75 10 18.75C10.663 18.75 11.2989 19.0134 11.7678 19.4822C12.2366 19.9511 12.5 20.587 12.5 21.25ZM22.5 21.25C22.5 21.7445 22.3534 22.2278 22.0787 22.6389C21.804 23.05 21.4135 23.3705 20.9567 23.5597C20.4999 23.7489 19.9972 23.7984 19.5123 23.702C19.0273 23.6055 18.5819 23.3674 18.2322 23.0178C17.8826 22.6681 17.6445 22.2227 17.548 21.7377C17.4516 21.2528 17.5011 20.7501 17.6903 20.2933C17.8795 19.8365 18.2 19.446 18.6111 19.1713C19.0222 18.8966 19.5055 18.75 20 18.75C20.663 18.75 21.2989 19.0134 21.7678 19.4822C22.2366 19.9511 22.5 20.587 22.5 21.25Z" fill="#3D62BF"/>
</svg>
