<svg width="40" height="40" viewBox="0 0 40 40" fill="none" xmlns="http://www.w3.org/2000/svg">
<g clip-path="url(#clip0_58_45)">
<path d="M39.3332 26.7332C39.1999 26.1999 38.9999 25.6666 38.7332 25.1999C38.9999 24.9332 38.9999 24.5332 38.7332 24.2665L37.3999 22.9331C37.1332 22.6665 36.7332 22.6665 36.4665 22.9331C35.9999 22.6665 35.4665 22.4665 34.9331 22.3331C34.9331 21.9331 34.6665 21.6665 34.2665 21.6665H32.3999C31.9999 21.6665 31.7332 21.9331 31.7332 22.3331C31.1999 22.4665 30.6666 22.6665 30.1999 22.9331C29.9332 22.6665 29.5332 22.6665 29.2665 22.9331L27.9331 24.2665C27.6665 24.5331 27.6665 24.9331 27.9331 25.1999C27.6665 25.6665 27.4665 26.1999 27.3331 26.7332C26.9331 26.7332 26.6665 26.9999 26.6665 27.3999V29.2665C26.6665 29.6665 26.9331 29.9331 27.3331 29.9331C27.4665 30.4665 27.6665 30.9998 27.9331 31.4665C27.6665 31.7331 27.6665 32.1331 27.9331 32.3999L29.2665 33.7332C29.5331 33.9999 29.9331 33.9999 30.1999 33.7332C30.6665 33.9999 31.1999 34.1999 31.7332 34.3332C31.7332 34.7332 31.9999 34.9999 32.3999 34.9999H34.2665C34.5999 34.9999 34.9331 34.7332 34.9331 34.3332C35.4665 34.1999 35.9998 33.9999 36.4665 33.7332C36.7331 33.9999 37.1331 33.9999 37.3999 33.7332L38.7332 32.3999C38.9999 32.1332 38.9999 31.7332 38.7332 31.4665C38.9999 30.9999 39.1999 30.4665 39.3332 29.9331C39.7332 29.9331 39.9999 29.6665 39.9999 29.2665V27.3999C39.9999 26.9999 39.7332 26.7332 39.3332 26.7332ZM38.5999 28.6665C38.3332 28.7331 38.1332 28.9331 38.0665 29.1999C37.9999 29.9332 37.6665 30.5999 37.2665 31.1999C37.1331 31.3999 37.1331 31.7332 37.2665 31.9332L36.8665 32.3332C36.6665 32.1999 36.3331 32.1999 36.1331 32.3332C35.5331 32.7332 34.8665 32.9999 34.1331 33.1332C33.8665 33.1999 33.6665 33.3999 33.5998 33.6666H33.0664C32.9998 33.3999 32.7998 33.1999 32.5331 33.1332C31.7997 33.0666 31.1331 32.7332 30.5331 32.3332C30.3331 32.1999 29.9997 32.1999 29.7997 32.3332L29.3997 31.9332C29.5331 31.7332 29.5331 31.3999 29.3997 31.1999C28.9997 30.5999 28.7331 29.9332 28.5997 29.1999C28.5331 28.9332 28.3331 28.7332 28.0663 28.6665V28.1331C28.333 28.0665 28.533 27.8665 28.5997 27.5998C28.6663 26.8664 28.9997 26.1998 29.3997 25.5998C29.5331 25.3998 29.5331 25.0664 29.3997 24.8664L29.7997 24.4664C29.9997 24.5998 30.3331 24.5998 30.5331 24.4664C31.1331 24.0664 31.7997 23.7998 32.5331 23.6664C32.7997 23.5998 32.9997 23.3998 33.0664 23.1331H33.5998C33.6664 23.3997 33.8664 23.5997 34.1331 23.6664C34.8665 23.7331 35.5331 24.0664 36.1331 24.4664C36.3331 24.5998 36.6665 24.5998 36.8665 24.4664L37.2665 24.8664C37.1331 25.0664 37.1331 25.3998 37.2665 25.5998C37.6665 26.1998 37.9331 26.8664 38.0665 27.5998C38.1331 27.8664 38.3331 28.0664 38.5999 28.1331V28.6665Z" fill="#207203"/>
<path d="M33.3334 25C31.4666 25 30 26.4666 30 28.3334C30 30.2 31.4666 31.6667 33.3334 31.6667C35.2001 31.6667 36.6667 30.2001 36.6667 28.3334C36.6666 26.4666 35.2 25 33.3334 25ZM33.3334 30.3334C32.2 30.3334 31.3334 29.4667 31.3334 28.3334C31.3334 27.2 32.2 26.3334 33.3334 26.3334C34.4667 26.3334 35.3334 27.2 35.3334 28.3334C35.3334 29.4666 34.4666 30.3334 33.3334 30.3334Z" fill="#207203"/>
<path d="M25.4573 29.7723C25.4662 29.6955 25.4667 29.6145 25.4667 29.5333C25.4001 29.1333 25.3334 28.7333 25.3334 28.3333C25.3334 27.9333 25.4 27.5333 25.5334 27.1333C25.5754 27.0073 25.5643 26.8814 25.5171 26.772C25.748 25.5471 26.2641 24.3877 27.0667 23.3999C27.0859 23.3713 27.1034 23.3411 27.1194 23.3101C28.5892 21.4973 30.8318 20.3333 33.3334 20.3333C34.4001 20.3333 35.4487 20.5469 36.4157 20.9456C36.4443 20.9675 36.4806 20.9808 36.5184 20.9884C37.3854 21.3599 38.1839 21.8815 38.8667 22.5333C39.1334 22.7999 39.5334 22.7999 39.8001 22.5333C40.0667 22.2666 40.0667 21.8666 39.8001 21.5999C39.0709 20.8988 38.2352 20.328 37.3334 19.9013V11C37.3334 10.6 37.0668 10.3334 36.6668 10.3334C34.8002 10.3334 33.2002 11.6667 32.8002 13.5334L32.0678 19.0868C29.7395 19.406 27.678 20.5923 26.2216 22.307C24.7963 22.122 23.6755 21.05 23.3992 19.6666H24.0002C24.4002 19.6666 24.6668 19.4 24.6668 19V17.2445L27.9274 14.5273L29.5335 16.1334C29.6669 16.2667 29.8002 16.3334 30.0002 16.3334C30.2002 16.3334 30.3335 16.2667 30.4668 16.1334C30.7334 15.8667 30.7334 15.4667 30.4668 15.2L28.4668 13.2C28.4383 13.162 28.4038 13.1285 28.3658 13.099L26.4668 11.2C26.2002 10.9334 25.8002 10.9334 25.5334 11.2C25.2668 11.4666 25.2668 11.8666 25.5334 12.1334L26.988 13.5879L24.6667 15.5223V15C24.6667 14.6 24.4001 14.3334 24.0001 14.3334H16V10.3334C16 9.93336 15.7334 9.66672 15.3334 9.66672H14.6667V7.66672C14.6667 6.93336 15.2667 6.33336 16.0001 6.33336C16.4001 6.33336 16.6667 6.06672 16.6667 5.66672C16.6667 5.26672 16.4 5 16 5C14.5334 5 13.3334 6.2 13.3334 7.66664V9.66664H12.6667C12.2667 9.66664 12.0001 9.93328 12.0001 10.3333V14.3333H9.33344V12.8924C10.1227 12.6275 10.6668 11.8976 10.6668 10.9999C10.6668 9.86656 9.80016 8.99992 8.6668 8.99992H6C4.86664 8.99992 4 9.86656 4 10.9999C4 11.8977 4.54398 12.6275 5.33336 12.8924V14.3333C3.46672 14.3333 2 15.7999 2 17.6666V19V24.5155C0.770547 25.6113 0 27.209 0 29C0 32.3334 2.66664 35 6 35C8.8743 35 11.2512 33.0166 11.8518 30.3334H24.2248C24.3483 30.8806 24.5195 31.4141 24.7334 31.9334C24.8 32.2 25.0667 32.3334 25.3334 32.3334C25.4 32.3334 25.5334 32.3334 25.6 32.2667C25.9334 32.1334 26.0666 31.7334 25.9334 31.4001C25.7148 30.89 25.5564 30.3401 25.4573 29.7723ZM34.2 13.7334C34.3334 12.7334 35.0666 12 36 11.7334V19.3903C35.902 19.3611 35.8034 19.3337 35.7043 19.3077C35.002 19.1027 34.2932 19 33.5333 19L34.2 13.7334ZM23.3334 15.6666V16.7547C23.2873 16.892 23.2841 17.0466 23.3334 17.1861V18.3334H22.6667H16V15.6667L23.3334 15.6666ZM13.3334 11H14.6667V15V19V21H13.3334V19V15V11ZM6 10.3334H8.66664C9.06664 10.3334 9.33328 10.6 9.33328 11C9.33328 11.4 9.06664 11.6666 8.66664 11.6666H6C5.6 11.6666 5.33336 11.4 5.33336 11C5.33336 10.6 5.6 10.3334 6 10.3334ZM6.66664 13H8V14.3334H6.66664V13ZM3.33336 17.6666C3.33336 16.5333 4.2 15.6666 5.33336 15.6666H6H8.66664H12V18.3333H3.33336V17.6666ZM3.33336 23.6V19.6666H12V21.6666C12 22.0666 12.2666 22.3333 12.6666 22.3333H15.3333C15.7333 22.3333 15.9999 22.0666 15.9999 21.6666V19.6666H22.0666C22.3323 21.4605 23.6577 22.9231 25.3824 23.4609C24.8437 24.3347 24.4451 25.3027 24.2178 26.3333H11.4C10.3854 24.3675 8.52617 23.1265 6.33906 23.0098C6.32078 23.0088 6.30258 23.0079 6.2843 23.007C6.19008 23.0028 6.09539 22.9999 6 22.9999C5.89734 22.9999 5.79477 23.0027 5.69234 23.0076C5.69102 23.0077 5.68969 23.0077 5.68836 23.0077C4.86039 23.0474 4.04422 23.2445 3.33336 23.6ZM6 33.6666C3.4 33.6666 1.33336 31.6 1.33336 29C1.33336 26.5648 3.14633 24.5977 5.51234 24.358C5.51695 24.3576 5.52148 24.3571 5.52609 24.3566C5.59328 24.35 5.66102 24.3452 5.72906 24.3415C5.74305 24.3407 5.75687 24.3396 5.77086 24.339C5.8468 24.3354 5.9232 24.3333 6.00008 24.3333C6.07359 24.3333 6.14656 24.3355 6.21914 24.3388C6.23883 24.3396 6.25836 24.3409 6.27797 24.342C6.33555 24.3453 6.39281 24.3495 6.44977 24.3548C6.4657 24.3563 6.48172 24.3577 6.49766 24.3593C6.64641 24.3747 6.79289 24.3967 6.93695 24.4255C6.94516 24.4271 6.95328 24.4288 6.96141 24.4305C7.03078 24.4448 7.09969 24.4603 7.16789 24.4776C7.17094 24.4784 7.17391 24.4791 7.17695 24.4798C7.32352 24.5171 7.46719 24.5613 7.60758 24.612C7.61273 24.6138 7.61781 24.6157 7.62289 24.6176C7.68641 24.6408 7.74922 24.6654 7.81141 24.6912C7.81906 24.6944 7.82672 24.6974 7.83437 24.7006C7.90102 24.7287 7.96688 24.7581 8.0318 24.7891C8.03578 24.7911 8.03969 24.7932 8.04367 24.7951C8.09703 24.8208 8.14961 24.8478 8.2018 24.8755C8.23328 24.8922 8.26445 24.9095 8.29547 24.927C8.31539 24.9381 8.33516 24.9495 8.35484 24.9609C9.22695 25.4691 9.92492 26.2644 10.3333 27.2667C10.346 27.3177 10.3663 27.3638 10.3922 27.4051C10.5697 27.9016 10.6666 28.4383 10.6666 29.0001C10.6666 31.6 8.6 33.6666 6 33.6666ZM24 29H12C12 28.9239 11.9977 28.85 11.9945 28.7769C11.9841 28.4901 11.9538 28.2089 11.9053 27.9342C11.8927 27.8468 11.8798 27.7583 11.8667 27.6667H24C24 27.8667 24 28.1334 24 28.3334C24 28.5334 24 28.8 24 29Z" fill="#207203"/>
<path d="M6.00014 26.3335C4.5335 26.3335 3.3335 27.5335 3.3335 29.0001C3.3335 30.4668 4.5335 31.6668 6.00014 31.6668C7.46678 31.6668 8.66678 30.4668 8.66678 29.0001C8.66678 27.5335 7.46678 26.3335 6.00014 26.3335ZM6.00014 30.3335C5.26678 30.3335 4.66678 29.7335 4.66678 29.0001C4.66678 28.2668 5.26678 27.6668 6.00014 27.6668C6.7335 27.6668 7.3335 28.2668 7.3335 29.0001C7.3335 29.7335 6.7335 30.3335 6.00014 30.3335Z" fill="#207203"/>
<path d="M18.0001 22.3333H20.6668C21.0668 22.3333 21.3334 22.0666 21.3334 21.6666C21.3334 21.2666 21.0668 21 20.6668 21H18.0001C17.6001 21 17.3335 21.2666 17.3335 21.6666C17.3335 22.0666 17.6001 22.3333 18.0001 22.3333Z" fill="#207203"/>
<path d="M16.6666 24.3333H22C22.4 24.3333 22.6666 24.0666 22.6666 23.6666C22.6666 23.2666 22.4 23 22 23H16.6666C16.2666 23 16 23.2666 16 23.6666C16 24.0666 16.2666 24.3333 16.6666 24.3333Z" fill="#207203"/>
<path d="M8.00014 22.3333C8.40014 22.3333 8.66678 22.0666 8.66678 21.6666C8.66678 21.2666 8.40014 21 8.00014 21C7.60014 21 7.3335 21.2666 7.3335 21.6666C7.3335 22.0666 7.60014 22.3333 8.00014 22.3333Z" fill="#207203"/>
<path d="M5.99979 21.6666C5.99979 21.2666 5.73314 21 5.33314 21C4.93314 21 4.6665 21.2666 4.6665 21.6666C4.6665 22.0666 4.93314 22.3333 5.33314 22.3333C5.73314 22.3333 5.99979 22.0666 5.99979 21.6666Z" fill="#207203"/>
</g>
<defs>
<clipPath id="clip0_58_45">
<rect width="40" height="40" fill="white"/>
</clipPath>
</defs>
</svg>
