<svg width="33" height="33" viewBox="0 0 33 33" fill="none" xmlns="http://www.w3.org/2000/svg">
<path d="M31.119 15.5786C30.672 15.195 26.6712 11.83 23.8868 11.83C20.4157 11.83 18.7399 14.8572 18.3377 16.4582L18.2768 16.7032C17.759 16.9986 17.2731 17.3467 16.8269 17.7421C16.351 18.1667 15.9274 18.6465 15.5652 19.1715C15.5363 19.0338 15.5079 18.8961 15.4729 18.7631C15.0635 17.2673 14.4066 15.9442 13.6986 14.6582C13.1263 13.6419 12.4941 12.6699 11.832 11.7217L11.8645 11.6562C12.5575 10.2578 13.1696 6.88102 10.5301 4.11366C8.38045 1.85883 2.77922 1.21378 2.14809 1.14881L1.03125 1.03125L1.14108 2.18419C1.20398 2.84625 1.81706 8.70839 3.96309 10.9575C5.1578 12.21 6.65208 12.8726 8.28506 12.8726C9.62672 12.8726 10.7327 12.4281 11.2257 12.192C11.8145 13.1448 12.3578 14.125 12.8535 15.1295C13.4671 16.4025 14.0245 17.7298 14.3055 19.0554C14.373 19.3849 13.9085 31.9688 13.9085 31.9688H16.2051C16.2051 31.9688 15.8462 21.5835 15.9096 21.334C16.1777 20.296 16.7614 19.32 17.5307 18.5249C17.8613 18.1869 18.2228 17.8807 18.6105 17.6101C19.2823 18.959 20.9385 20.7854 23.8868 20.7854C26.6712 20.7854 30.672 17.4209 31.119 17.0373L31.9688 16.3077L31.119 15.5786Z" fill="#42A41F"/>
</svg>
