<svg width="32" height="32" viewBox="0 0 32 32" fill="none" xmlns="http://www.w3.org/2000/svg">
<g clip-path="url(#clip0_53_97)">
<path d="M0.438688 25.9164L6.08356 31.5615C6.36419 31.8423 6.74506 32 7.14206 32C7.53913 32 7.91981 31.8423 8.20044 31.5615L12.4344 27.3276C12.7151 27.0469 12.8729 26.6661 12.8729 26.2692C12.8729 25.8721 12.7151 25.4914 12.4344 25.2107L10.6702 23.4467L17.7266 16.3904L16.6681 15.3321L15.6098 14.2736L16.6681 13.2152L17.7266 12.1568L19.8435 10.0399L20.5491 9.33431C21.1336 8.74981 22.0813 8.74981 22.666 9.33444C23.2505 9.919 23.2506 10.8666 22.666 11.4514L19.8435 14.2738L18.7851 15.3322L17.7268 16.3906L21.9605 20.6243C22.2412 20.905 22.6219 21.0628 23.0189 21.0628C23.4159 21.0628 23.7966 20.9051 24.0773 20.6243L29.3694 15.3322C31.0658 13.6358 32 11.3804 32 8.98137C32 6.5825 31.0659 4.327 29.3695 2.63062C27.6733 0.93425 25.4178 0 23.0188 0C20.6199 0 18.3643 0.93425 16.6681 2.6305L11.3759 7.92275C10.7913 8.50731 10.7913 9.45506 11.3759 10.0396L15.6098 14.2736L8.55338 21.3298L6.78919 19.5658C6.49688 19.2735 6.11381 19.1273 5.73081 19.1273C5.34781 19.1273 4.96463 19.2734 4.67231 19.5658L0.438562 23.7996C-0.146 24.3841 -0.146 25.3318 0.438688 25.9164ZM5.73081 22.7412L7.4945 24.5048C7.49463 24.5049 7.49469 24.5051 7.49487 24.5053C7.49506 24.5054 7.49525 24.5056 7.4955 24.5057L9.259 26.2692L7.142 28.3863L3.614 24.858L5.73081 22.7412Z" fill="#AF871E"/>
</g>
<defs>
<clipPath id="clip0_53_97">
<rect width="32" height="32" fill="white" transform="matrix(-1 0 0 -1 32 32)"/>
</clipPath>
</defs>
</svg>
